<svg width="76" height="22" viewBox="0 0 76 22" fill="none" xmlns="http://www.w3.org/2000/svg">
<g id="Group 466">
<rect id="Rectangle 55" width="76" height="21.1111" rx="4" fill="#635BFF"/>
<g id="Group 376">
<path id="Vector" d="M8.90774 7.87891H6.75562V13.0551H7.71656V11.0539H8.90774C10.1089 11.0539 10.8597 10.4959 10.8597 9.4664C10.8597 8.43693 10.1089 7.87891 8.90774 7.87891ZM8.85769 10.2842H7.71656V8.69671H8.8727C9.56338 8.69671 9.92874 8.98053 9.92874 9.49045C9.92874 10.0004 9.54837 10.2601 8.8727 10.2601L8.85769 10.2842Z" fill="white"/>
<path id="Vector_2" d="M12.9267 9.20716C12.6636 9.20423 12.4028 9.25423 12.1609 9.35395C11.9191 9.45367 11.7017 9.60091 11.5226 9.78619C11.3435 9.97148 11.2067 10.1907 11.1209 10.4299C11.0352 10.669 11.0025 10.9227 11.0248 11.1747C11.0014 11.4281 11.0331 11.6834 11.1178 11.9244C11.2026 12.1653 11.3387 12.3867 11.5174 12.5744C11.696 12.7621 11.9134 12.912 12.1556 13.0145C12.3978 13.117 12.6595 13.17 12.9242 13.17C13.1889 13.17 13.4506 13.117 13.6929 13.0145C13.9351 12.912 14.1524 12.7621 14.3311 12.5744C14.5097 12.3867 14.6458 12.1653 14.7306 11.9244C14.8154 11.6834 14.847 11.4281 14.8236 11.1747C14.8467 10.9229 14.8146 10.6693 14.7295 10.4302C14.6444 10.1911 14.5081 9.97177 14.3293 9.78639C14.1506 9.60102 13.9335 9.4537 13.6919 9.35393C13.4503 9.25416 13.1896 9.20416 12.9267 9.20716ZM12.9267 12.4158C12.3161 12.4158 11.9257 11.9348 11.9257 11.1747C11.9257 10.4146 12.3061 9.93356 12.9267 9.93356C13.5473 9.93356 13.9277 10.4146 13.9277 11.1747C13.9277 11.9348 13.5323 12.411 12.9267 12.411V12.4158Z" fill="white"/>
<path id="Vector_3" d="M18.7723 11.7807L18.0666 9.26953H17.3258L16.6251 11.7807L15.9144 9.26953H14.9885L16.1747 13.0603H16.9555L17.6762 10.578L18.3969 13.0603H19.1777L20.3638 9.26953H19.4729L18.7723 11.7807Z" fill="white"/>
<path id="Vector_4" d="M22.386 9.20703C22.1263 9.21167 21.8703 9.26698 21.6336 9.3696C21.3968 9.47222 21.1842 9.62002 21.0087 9.80403C20.8332 9.98803 20.6984 10.2044 20.6125 10.44C20.5266 10.6756 20.4915 10.9255 20.5091 11.1746C20.4882 11.4275 20.5225 11.6818 20.6096 11.9213C20.6968 12.1607 20.835 12.3801 21.0155 12.5653C21.1959 12.7505 21.4145 12.8974 21.6574 12.9967C21.9003 13.0961 22.1621 13.1456 22.426 13.1421C22.7889 13.1609 23.1487 13.0698 23.4549 12.8817C23.7611 12.6935 23.9981 12.4178 24.1327 12.0934L23.387 11.7951C23.3285 11.981 23.2059 12.1423 23.0395 12.2524C22.8731 12.3626 22.6726 12.415 22.4711 12.4013C22.3275 12.4046 22.1847 12.3798 22.0514 12.3285C21.9181 12.2772 21.797 12.2004 21.6955 12.1028C21.5939 12.0052 21.5141 11.8889 21.4607 11.7607C21.4073 11.6326 21.3816 11.4954 21.385 11.3574H24.1477V11.0687C24.1577 10.0296 23.5471 9.20703 22.386 9.20703ZM21.42 10.7127C21.4551 10.4918 21.5723 10.2907 21.7499 10.1465C21.9276 10.0023 22.1535 9.9249 22.386 9.92862C22.4964 9.91965 22.6076 9.93338 22.7121 9.96891C22.8166 10.0044 22.912 10.0609 22.992 10.1347C23.072 10.2084 23.1348 10.2976 23.1762 10.3965C23.2175 10.4953 23.2365 10.6015 23.2318 10.7079L21.42 10.7127Z" fill="white"/>
<path id="Vector_5" d="M25.7341 9.83146V9.26862H24.8333V13.0546H25.7341V11.0678C25.7261 10.9394 25.7465 10.8109 25.794 10.6907C25.8414 10.5704 25.9149 10.4613 26.0095 10.3703C26.1041 10.2794 26.2177 10.2088 26.3428 10.1632C26.4679 10.1175 26.6016 10.0979 26.7351 10.1057C26.8451 10.0982 26.9555 10.0982 27.0655 10.1057V9.23976C26.9954 9.23976 26.9153 9.23976 26.8102 9.23976C26.5907 9.22883 26.3725 9.27879 26.1818 9.3837C25.991 9.48861 25.8356 9.64404 25.7341 9.83146Z" fill="white"/>
<path id="Vector_6" d="M29.1326 9.20703C28.8729 9.21167 28.6169 9.26698 28.3801 9.3696C28.1434 9.47222 27.9308 9.62002 27.7553 9.80403C27.5797 9.98803 27.445 10.2044 27.3591 10.44C27.2732 10.6756 27.238 10.9255 27.2557 11.1746C27.2348 11.4275 27.269 11.6818 27.3562 11.9213C27.4434 12.1607 27.5816 12.3801 27.762 12.5653C27.9425 12.7505 28.1611 12.8974 28.404 12.9967C28.6469 13.0961 28.9087 13.1456 29.1726 13.1421C29.5321 13.1568 29.8875 13.0638 30.1897 12.8759C30.4918 12.688 30.7258 12.4146 30.8593 12.0934L30.0885 11.8096C30.03 11.9955 29.9075 12.1567 29.741 12.2668C29.5746 12.377 29.3742 12.4295 29.1726 12.4157C29.032 12.4145 28.893 12.3864 28.7638 12.333C28.6346 12.2797 28.5177 12.2022 28.4199 12.1051C28.3221 12.008 28.2453 11.8931 28.1941 11.7672C28.1429 11.6413 28.1183 11.5069 28.1216 11.3718H30.8943V11.0832C30.8943 10.0296 30.2737 9.20703 29.1326 9.20703ZM28.1666 10.7127C28.2027 10.4936 28.3196 10.2942 28.4961 10.1511C28.6725 10.008 28.8967 9.93071 29.1276 9.93343C29.238 9.92446 29.3492 9.93819 29.4537 9.97372C29.5582 10.0092 29.6536 10.0657 29.7336 10.1395C29.8136 10.2132 29.8764 10.3024 29.9177 10.4013C29.9591 10.5001 29.9781 10.6063 29.9734 10.7127H28.1666Z" fill="white"/>
<path id="Vector_7" d="M34.1769 9.68769C34.038 9.53104 33.8642 9.40646 33.6684 9.32318C33.4726 9.23991 33.2598 9.20007 33.0458 9.20663C31.9397 9.20663 31.3091 10.0966 31.3091 11.1742C31.3091 12.2517 31.9397 13.1417 33.0458 13.1417C33.26 13.1493 33.4731 13.11 33.6691 13.0266C33.8651 12.9432 34.0387 12.8181 34.1769 12.6606V13.0551H35.0778V7.87891H34.1769V9.68769ZM34.1769 11.2992C34.1971 11.4364 34.1862 11.5761 34.145 11.7089C34.1039 11.8417 34.0333 11.9643 33.9383 12.0684C33.8432 12.1726 33.7259 12.2558 33.5943 12.3123C33.4628 12.3688 33.32 12.3974 33.1759 12.396C32.5203 12.396 32.1749 11.915 32.1749 11.1838C32.1749 10.4526 32.5253 9.97151 33.1759 9.97151C33.7315 9.97151 34.1769 10.3612 34.1769 11.0731V11.2992Z" fill="white"/>
<path id="Vector_8" d="M40.0578 9.20663C39.8397 9.19746 39.6224 9.23599 39.4221 9.31933C39.2218 9.40266 39.0439 9.52861 38.9016 9.68769V7.87891H38.0007V13.0551H38.9016V12.6558C39.0413 12.8128 39.2159 12.9376 39.4126 13.0209C39.6093 13.1042 39.8229 13.1438 40.0377 13.1369C41.1388 13.1369 41.7695 12.2421 41.7695 11.1693C41.7695 10.0966 41.1588 9.20663 40.0578 9.20663ZM39.9026 12.3816C39.7585 12.383 39.6158 12.3544 39.4842 12.2979C39.3526 12.2413 39.2353 12.1581 39.1402 12.054C39.0452 11.9499 38.9747 11.8272 38.9335 11.6945C38.8923 11.5617 38.8814 11.422 38.9016 11.2848V11.0587C38.9016 10.3467 39.322 9.95708 39.9026 9.95708C40.5532 9.95708 40.9036 10.4381 40.9036 11.1693C40.9036 11.9006 40.5282 12.3816 39.9026 12.3816Z" fill="white"/>
<path id="Vector_9" d="M43.872 11.9298L42.906 9.26953H41.9551L43.4065 12.9208L43.2564 13.2768C43.2308 13.3987 43.1572 13.5064 43.0508 13.5773C42.9444 13.6482 42.8136 13.6766 42.6858 13.6568C42.5858 13.6638 42.4855 13.6638 42.3855 13.6568V14.3832C42.5064 14.4005 42.6286 14.4085 42.7509 14.4072C43.0633 14.4291 43.3739 14.3447 43.6282 14.1688C43.8825 13.993 44.0644 13.7368 44.1422 13.4451L45.7638 9.29839H44.8179L43.872 11.9298Z" fill="white"/>
<path id="Vector_10" d="M62.9258 8.4512C62.7282 8.4501 62.5323 8.4865 62.3494 8.55832C62.1664 8.63014 62.0001 8.73596 61.8598 8.86972L61.7897 8.53779H60.5935V14.7531L61.9548 14.4692V12.9635C62.2256 13.1815 62.5676 13.3007 62.9208 13.3003C63.8918 13.3003 64.7826 12.5354 64.7826 10.8421C64.7826 9.29305 63.8817 8.4512 62.9258 8.4512ZM62.6005 12.1217C62.4811 12.1283 62.3616 12.1093 62.2508 12.066C62.14 12.0227 62.0406 11.9563 61.9599 11.8715V9.89437C62.041 9.80649 62.1415 9.73713 62.254 9.69136C62.3666 9.64558 62.4884 9.62455 62.6105 9.62979C63.111 9.62979 63.4513 10.1734 63.4513 10.8709C63.4513 11.5685 63.106 12.1217 62.6005 12.1217Z" fill="white"/>
<path id="Vector_11" d="M67.2955 8.45117C65.9843 8.45117 65.1885 9.53837 65.1885 10.9094C65.1885 12.5306 66.1294 13.3532 67.4707 13.3532C67.9942 13.3614 68.5112 13.2405 68.9722 13.002V11.9196C68.5535 12.1227 68.0898 12.225 67.6209 12.2179C67.0803 12.2179 66.6199 12.0302 66.5498 11.4001H69.2425C69.2425 11.3279 69.2425 11.0441 69.2425 10.919C69.2875 9.53836 68.6068 8.45117 67.2955 8.45117ZM66.5598 10.4091C66.5598 9.80295 66.9452 9.54799 67.2855 9.54799C67.6259 9.54799 67.9862 9.80295 67.9862 10.4091H66.5598Z" fill="white"/>
<path id="Vector_12" d="M56.9198 8.89846L56.8347 8.50399H55.6736V13.1751H57.0149V10.0097C57.136 9.86834 57.2992 9.76589 57.4825 9.71603C57.6659 9.66617 57.8607 9.67129 58.0409 9.73069V8.50399C57.8362 8.4269 57.6091 8.42445 57.4026 8.49711C57.1961 8.56977 57.0244 8.71252 56.9198 8.89846Z" fill="white"/>
<path id="Vector_13" d="M50.143 9.90898C50.143 9.69731 50.3231 9.61553 50.6084 9.61553C51.0812 9.62531 51.5447 9.7441 51.9597 9.96189V8.69671C51.5306 8.52992 51.0713 8.44654 50.6084 8.45137C49.5023 8.45137 48.7666 9.01902 48.7666 9.97152C48.7666 11.4628 50.8386 11.2223 50.8386 11.8621C50.8386 12.1122 50.6184 12.194 50.3382 12.194C49.8094 12.1643 49.2951 12.016 48.8367 11.7611V13.0551C49.3092 13.2577 49.8207 13.3626 50.3382 13.363C51.4693 13.363 52.25 12.8098 52.25 11.8428C52.225 10.2265 50.143 10.5151 50.143 9.90898Z" fill="white"/>
<path id="Vector_14" d="M54.0572 7.39746L52.7309 7.67647V11.9723C52.7241 12.1534 52.7557 12.3338 52.8239 12.5027C52.8921 12.6716 52.9954 12.8254 53.1275 12.9546C53.2596 13.0838 53.4177 13.1858 53.5922 13.2543C53.7667 13.3228 53.9538 13.3564 54.1423 13.353C54.4711 13.3671 54.7987 13.3061 55.0982 13.175V12.0926C54.9231 12.1648 54.0672 12.4101 54.0672 11.6115V9.6873H55.0982V8.56162H54.0672L54.0572 7.39746Z" fill="white"/>
<path id="Vector_15" d="M58.5461 8.1004L59.9125 7.8262V6.78711L58.5461 7.06131V8.1004Z" fill="white"/>
<path id="Vector_16" d="M59.9125 8.53906H58.5461V13.1765H59.9125V8.53906Z" fill="white"/>
</g>
</g>
</svg>
