<svg width="32" height="32" viewBox="0 0 32 32" fill="none" xmlns="http://www.w3.org/2000/svg">
<g id="facebook-3-3 1" clip-path="url(#clip0_36_920)">
<path id="Vector" d="M16.0001 32C24.8366 32 32.0001 24.8366 32.0001 16C32.0001 7.16344 24.8366 0 16.0001 0C7.16351 0 6.10352e-05 7.16344 6.10352e-05 16C6.10352e-05 24.8366 7.16351 32 16.0001 32Z" fill="#3C5A9A"/>
<path id="Vector_2" d="M21.2025 4.91113H17.6581C15.5548 4.91113 13.2152 5.79578 13.2152 8.84469C13.2255 9.90704 13.2152 10.9245 13.2152 12.0695H10.7819V15.9416H13.2905V27.0888H17.9002V15.8681H20.9428L21.2181 12.0587H17.8208C17.8208 12.0587 17.8284 10.3641 17.8208 9.87195C17.8208 8.66708 19.0745 8.73608 19.1499 8.73608C19.7465 8.73608 20.9065 8.73782 21.2043 8.73608V4.91113H21.2025Z" fill="white"/>
</g>
<defs>
<clipPath id="clip0_36_920">
<rect width="32" height="32" fill="white"/>
</clipPath>
</defs>
</svg>
