<svg width="32" height="32" viewBox="0 0 32 32" fill="none" xmlns="http://www.w3.org/2000/svg">
<g id="Group">
<g id="Clip path group">
<mask id="mask0_36_926" style="mask-type:luminance" maskUnits="userSpaceOnUse" x="0" y="0" width="32" height="32">
<g id="SVGID_2_">
<path id="Vector" d="M31.6279 13.0909H16.3721V19.2727H25.1535C24.3349 23.2 20.9116 25.4545 16.3721 25.4545C11.014 25.4545 6.69767 21.2364 6.69767 16C6.69767 10.7636 11.014 6.54545 16.3721 6.54545C18.6791 6.54545 20.7628 7.34547 22.4 8.65456L27.1628 4C24.2605 1.52727 20.5395 0 16.3721 0C7.29302 0 0 7.12727 0 16C0 24.8727 7.29302 32 16.3721 32C24.5581 32 32 26.1818 32 16C32 15.0545 31.8512 14.0364 31.6279 13.0909Z" fill="white"/>
</g>
</mask>
<g mask="url(#mask0_36_926)">
<path id="Vector_2" d="M-1.48834 25.4545V6.54541L11.1628 16L-1.48834 25.4545Z" fill="#FBBC05"/>
</g>
</g>
<g id="Clip path group_2">
<mask id="mask1_36_926" style="mask-type:luminance" maskUnits="userSpaceOnUse" x="0" y="0" width="32" height="32">
<g id="SVGID_4_">
<path id="Vector_3" d="M31.6279 13.0909H16.3721V19.2727H25.1535C24.3349 23.2 20.9116 25.4545 16.3721 25.4545C11.014 25.4545 6.69767 21.2364 6.69767 16C6.69767 10.7636 11.014 6.54545 16.3721 6.54545C18.6791 6.54545 20.7628 7.34547 22.4 8.65456L27.1628 4C24.2605 1.52727 20.5395 0 16.3721 0C7.29302 0 0 7.12727 0 16C0 24.8727 7.29302 32 16.3721 32C24.5581 32 32 26.1818 32 16C32 15.0545 31.8512 14.0364 31.6279 13.0909Z" fill="white"/>
</g>
</mask>
<g mask="url(#mask1_36_926)">
<path id="Vector_4" d="M-1.48834 6.54541L11.1628 16L16.3721 11.5636L34.2326 8.72723V-1.45459H-1.48834V6.54541Z" fill="#EA4335"/>
</g>
</g>
<g id="Group_2">
<g id="Clip path group_3">
<mask id="mask2_36_926" style="mask-type:luminance" maskUnits="userSpaceOnUse" x="0" y="0" width="32" height="32">
<g id="SVGID_6_">
<path id="Vector_5" d="M31.6279 13.0909H16.3721V19.2727H25.1535C24.3349 23.2 20.9116 25.4545 16.3721 25.4545C11.014 25.4545 6.69767 21.2364 6.69767 16C6.69767 10.7636 11.014 6.54545 16.3721 6.54545C18.6791 6.54545 20.7628 7.34547 22.4 8.65456L27.1628 4C24.2605 1.52727 20.5395 0 16.3721 0C7.29302 0 0 7.12727 0 16C0 24.8727 7.29302 32 16.3721 32C24.5581 32 32 26.1818 32 16C32 15.0545 31.8512 14.0364 31.6279 13.0909Z" fill="white"/>
</g>
</mask>
<g mask="url(#mask2_36_926)">
<path id="Vector_6" d="M-1.48834 25.4545L20.8372 8.72723L26.7163 9.4545L34.2326 -1.45459V33.4545H-1.48834V25.4545Z" fill="#34A853"/>
</g>
</g>
</g>
<g id="Group_3">
<g id="Clip path group_4">
<mask id="mask3_36_926" style="mask-type:luminance" maskUnits="userSpaceOnUse" x="0" y="0" width="32" height="32">
<g id="SVGID_8_">
<path id="Vector_7" d="M31.6279 13.0909H16.3721V19.2727H25.1535C24.3349 23.2 20.9116 25.4545 16.3721 25.4545C11.014 25.4545 6.69767 21.2364 6.69767 16C6.69767 10.7636 11.014 6.54545 16.3721 6.54545C18.6791 6.54545 20.7628 7.34547 22.4 8.65456L27.1628 4C24.2605 1.52727 20.5395 0 16.3721 0C7.29302 0 0 7.12727 0 16C0 24.8727 7.29302 32 16.3721 32C24.5581 32 32 26.1818 32 16C32 15.0545 31.8512 14.0364 31.6279 13.0909Z" fill="white"/>
</g>
</mask>
<g mask="url(#mask3_36_926)">
<path id="Vector_8" d="M34.2325 33.4545L11.1628 16L8.18604 13.8181L34.2325 6.54541V33.4545Z" fill="#4285F4"/>
</g>
</g>
</g>
</g>
</svg>
